<?xml version="1.0" encoding="utf-8"?>
<!-- Generator: Adobe Illustrator 21.1.0, SVG Export Plug-In . SVG Version: 6.00 Build 0)  -->
<svg version="1.1" id="Слой_1" xmlns="http://www.w3.org/2000/svg" xmlns:xlink="http://www.w3.org/1999/xlink" x="0px" y="0px"
	 viewBox="0 0 75 73" style="enable-background:new 0 0 75 73;" xml:space="preserve">
<style type="text/css">
	.st0{fill-opacity:0;}
	.st1{fill:none;stroke:#333333;stroke-width:2;}
	.st2{fill:#333333;}
</style>
<rect x="15.3" y="17.3" class="st0" width="40.7" height="36.5"/>
<path class="st1" d="M16.3,18.8h7.6l7.1,25l18.4,0L56,26.6l-29.7,0.1"/>
<path class="st1" d="M28.3,35.8h25"/>
<path class="st2" d="M33.8,53.8c1.9,0,3.5-1.6,3.5-3.5c0-1.9-1.6-3.5-3.5-3.5s-3.5,1.6-3.5,3.5C30.3,52.2,31.9,53.8,33.8,53.8z"/>
<path class="st2" d="M46.8,53.8c1.9,0,3.5-1.6,3.5-3.5c0-1.9-1.6-3.5-3.5-3.5s-3.5,1.6-3.5,3.5C43.3,52.2,44.9,53.8,46.8,53.8z"/>
<path class="st1" d="M34.3,26.8v16.5"/>
<path class="st1" d="M47.3,26.8v16.5"/>
</svg>
