<?xml version="1.0" encoding="utf-8"?>
<!-- Generator: Adobe Illustrator 21.1.0, SVG Export Plug-In . SVG Version: 6.00 Build 0)  -->
<svg version="1.1" id="Слой_1" xmlns="http://www.w3.org/2000/svg" xmlns:xlink="http://www.w3.org/1999/xlink" x="0px" y="0px"
	 viewBox="0 0 75 75" style="enable-background:new 0 0 75 75;" xml:space="preserve">
<style type="text/css">
	.st0{fill-opacity:0;}
	.st1{fill:none;stroke:#333333;stroke-width:2;}
	.st2{fill:#333333;}
</style>
<rect x="17" y="19" class="st0" width="40.7" height="36.5"/>
<path class="st1" d="M18,20.5h7.6l7.1,25l18.4,0l6.6-17.2L28,28.5"/>
<path class="st1" d="M30,37.5h25"/>
<path class="st2" d="M35.5,55.5c1.9,0,3.5-1.6,3.5-3.5c0-1.9-1.6-3.5-3.5-3.5S32,50.1,32,52C32,53.9,33.6,55.5,35.5,55.5z"/>
<path class="st2" d="M48.5,55.5c1.9,0,3.5-1.6,3.5-3.5c0-1.9-1.6-3.5-3.5-3.5S45,50.1,45,52C45,53.9,46.6,55.5,48.5,55.5z"/>
<path class="st1" d="M36,28.5V45"/>
<path class="st1" d="M49,28.5V45"/>
</svg>
