<?xml version="1.0" encoding="utf-8"?>
<!-- Generator: Adobe Illustrator 21.1.0, SVG Export Plug-In . SVG Version: 6.00 Build 0)  -->
<svg version="1.1" id="Слой_1" xmlns="http://www.w3.org/2000/svg" xmlns:xlink="http://www.w3.org/1999/xlink" x="0px" y="0px"
	 viewBox="0 0 75 75" style="enable-background:new 0 0 75 75;" xml:space="preserve">
<style type="text/css">
	.st0{fill-opacity:0;}
	.st1{fill:none;stroke:#3B3B3B;stroke-width:2;}
</style>
<rect x="10" y="11" class="st0" width="55.7" height="53.4"/>
<path class="st1" d="M35.7,44.4l11.2,11.7l3-3.3L31.1,33.3"/>
<path class="st1" d="M31,34.4c3.3-3.3,2.5-9.3-1.6-13.5c-4.2-4.2-10.2-4.9-13.5-1.6c-3.3,3.3-2.5,9.3,1.6,13.5
	C21.7,36.9,27.8,37.7,31,34.4z"/>
<rect x="14.9" y="24.1" transform="matrix(0.7071 -0.7071 0.7071 0.7071 -15.2386 38.6296)" class="st0" width="48.3" height="27.2"/>
<path class="st1" d="M37.2,44.1L25.9,55.8l-3-3.3l17.2-18"/>
<path class="st1" d="M61.3,25.8c-15.8,15.8-17.8,12.5-21,9.2c-3.3-3.3-6.6-5.2,9.2-21"/>
<path class="st1" d="M56.7,22L42.2,36.5"/>
<path class="st1" d="M52.8,18L38.3,32.5"/>
</svg>
