<?xml version="1.0" encoding="utf-8"?>
<!-- Generator: Adobe Illustrator 21.1.0, SVG Export Plug-In . SVG Version: 6.00 Build 0)  -->
<svg version="1.1" id="Слой_1" xmlns="http://www.w3.org/2000/svg" xmlns:xlink="http://www.w3.org/1999/xlink" x="0px" y="0px"
	 viewBox="0 0 75 75" style="enable-background:new 0 0 75 75;" xml:space="preserve">
<style type="text/css">
	.st0{fill-opacity:0;}
	.st1{fill:none;stroke:#3B3B3B;stroke-width:2;}
</style>
<rect x="13" y="25" class="st0" width="49.1" height="27.1"/>
<path class="st1" d="M37.5,34C51,34,62,32,62,29.5S51,25,37.5,25S13,27,13,29.5S24,34,37.5,34z"/>
<path class="st1" d="M34,52.1v-10c0,0,2.5-2.1,4-2.1s4,2.1,4,2.1v10"/>
<path class="st1" d="M21,50.1v-9c0,0,2.5-2.1,4-2.1s4,2.1,4,2.1v10"/>
<path class="st1" d="M46,51.1v-10c0,0,2.5-2.1,4-2.1s4,2.1,4,2.1v9"/>
<path class="st1" d="M58,50.1v-12c0,0,2.5-2.1,4-2.1"/>
<path class="st1" d="M13,36c1.5,0,4,2.1,4,2.1v12"/>
</svg>
