<?xml version="1.0" encoding="utf-8"?>
<!-- Generator: Adobe Illustrator 21.1.0, SVG Export Plug-In . SVG Version: 6.00 Build 0)  -->
<svg version="1.1" id="Слой_1" xmlns="http://www.w3.org/2000/svg" xmlns:xlink="http://www.w3.org/1999/xlink" x="0px" y="0px"
	 viewBox="0 0 75 75" style="enable-background:new 0 0 75 75;" xml:space="preserve">

<rect class="st0" width="75" height="75"/>
<path class="st1" d="M2,0h71c1.1,0,2,0.9,2,2v71c0,1.1-0.9,2-2,2H2c-1.1,0-2-0.9-2-2V2C0,0.9,0.9,0,2,0z"/>
<rect x="17.5" y="17.1" transform="matrix(0.9659 -0.2588 0.2588 0.9659 -8.3291 10.9673)" class="st0" width="40" height="39.9"/>
<path class="st2" d="M50,38.8c4,2.4,6.1,6.1,4.8,8.3c-1.3,2.3-5.6,2.3-9.6,0c1.1,4.5,0,8.6-2.5,9.3c-2.5,0.7-5.5-2.3-6.8-6.8
	c-2.4,4-6.1,6.1-8.3,4.8c-2.3-1.3-2.3-5.6,0-9.6c-4.5,1.1-8.6,0-9.3-2.5c-0.7-2.5,2.3-5.5,6.8-6.8c-4-2.4-6.1-6.1-4.8-8.3
	c1.3-2.3,5.6-2.3,9.6,0c-1.1-4.5,0-8.6,2.5-9.3c2.5-0.7,5.5,2.3,6.8,6.8c2.4-4,6.1-6.1,8.3-4.8c2.3,1.3,2.3,5.6,0,9.6
	c4.5-1.1,8.6,0,9.3,2.5C57.5,34.5,54.5,37.5,50,38.8z"/>
<path class="st2" d="M38.9,42.4c2.9-0.8,4.6-3.8,3.9-6.7c-0.8-2.9-3.8-4.6-6.7-3.9c-2.9,0.8-4.6,3.8-3.9,6.7
	C33,41.4,36,43.2,38.9,42.4z"/>
</svg>
